<svg id="visual" viewBox="0 0 900 600" width="900" height="600" xmlns="http://www.w3.org/2000/svg" xmlns:xlink="http://www.w3.org/1999/xlink" version="1.1"><rect x="0" y="0" width="900" height="600" fill="#ffffff"></rect><path d="M0 357L21.5 358.7C43 360.3 86 363.7 128.8 378.7C171.7 393.7 214.3 420.3 257.2 433.8C300 447.3 343 447.7 385.8 434.5C428.7 421.3 471.3 394.7 514.2 388.5C557 382.3 600 396.7 642.8 394.8C685.7 393 728.3 375 771.2 367.5C814 360 857 363 878.5 364.5L900 366L900 601L878.5 601C857 601 814 601 771.2 601C728.3 601 685.7 601 642.8 601C600 601 557 601 514.2 601C471.3 601 428.7 601 385.8 601C343 601 300 601 257.2 601C214.3 601 171.7 601 128.8 601C86 601 43 601 21.5 601L0 601Z" fill="#f1f1f1"></path><path d="M0 394L21.5 397.7C43 401.3 86 408.7 128.8 414C171.7 419.3 214.3 422.7 257.2 420.5C300 418.3 343 410.7 385.8 412.5C428.7 414.3 471.3 425.7 514.2 436.2C557 446.7 600 456.3 642.8 453.5C685.7 450.7 728.3 435.3 771.2 436.8C814 438.3 857 456.7 878.5 465.8L900 475L900 601L878.5 601C857 601 814 601 771.2 601C728.3 601 685.7 601 642.8 601C600 601 557 601 514.2 601C471.3 601 428.7 601 385.8 601C343 601 300 601 257.2 601C214.3 601 171.7 601 128.8 601C86 601 43 601 21.5 601L0 601Z" fill="#f4f4f4"></path><path d="M0 487L21.5 480.8C43 474.7 86 462.3 128.8 459.2C171.7 456 214.3 462 257.2 470.8C300 479.7 343 491.3 385.8 487.3C428.7 483.3 471.3 463.7 514.2 455.3C557 447 600 450 642.8 458C685.7 466 728.3 479 771.2 479.8C814 480.7 857 469.3 878.5 463.7L900 458L900 601L878.5 601C857 601 814 601 771.2 601C728.3 601 685.7 601 642.8 601C600 601 557 601 514.2 601C471.3 601 428.7 601 385.8 601C343 601 300 601 257.2 601C214.3 601 171.7 601 128.8 601C86 601 43 601 21.5 601L0 601Z" fill="#f8f8f8"></path><path d="M0 500L21.5 499.2C43 498.3 86 496.7 128.8 502.3C171.7 508 214.3 521 257.2 519C300 517 343 500 385.8 500.2C428.7 500.3 471.3 517.7 514.2 521.5C557 525.3 600 515.7 642.8 516.3C685.7 517 728.3 528 771.2 531.7C814 535.3 857 531.7 878.5 529.8L900 528L900 601L878.5 601C857 601 814 601 771.2 601C728.3 601 685.7 601 642.8 601C600 601 557 601 514.2 601C471.3 601 428.7 601 385.8 601C343 601 300 601 257.2 601C214.3 601 171.7 601 128.8 601C86 601 43 601 21.5 601L0 601Z" fill="#fbfbfb"></path><path d="M0 538L21.5 535.8C43 533.7 86 529.3 128.8 531.3C171.7 533.3 214.3 541.7 257.2 543.7C300 545.7 343 541.3 385.8 541.8C428.7 542.3 471.3 547.7 514.2 547.3C557 547 600 541 642.8 540.2C685.7 539.3 728.3 543.7 771.2 549.8C814 556 857 564 878.5 568L900 572L900 601L878.5 601C857 601 814 601 771.2 601C728.3 601 685.7 601 642.8 601C600 601 557 601 514.2 601C471.3 601 428.7 601 385.8 601C343 601 300 601 257.2 601C214.3 601 171.7 601 128.8 601C86 601 43 601 21.5 601L0 601Z" fill="#ffffff"></path></svg>