<svg id="visual" viewBox="0 0 900 600" width="900" height="600" xmlns="http://www.w3.org/2000/svg" xmlns:xlink="http://www.w3.org/1999/xlink" version="1.1"><rect x="0" y="0" width="900" height="600" fill="#ffffff"></rect><path d="M0 422L21.5 420.3C43 418.7 86 415.3 128.8 418C171.7 420.7 214.3 429.3 257.2 429.2C300 429 343 420 385.8 408C428.7 396 471.3 381 514.2 386.2C557 391.3 600 416.7 642.8 417.7C685.7 418.7 728.3 395.3 771.2 392.7C814 390 857 408 878.5 417L900 426L900 601L878.5 601C857 601 814 601 771.2 601C728.3 601 685.7 601 642.8 601C600 601 557 601 514.2 601C471.3 601 428.7 601 385.8 601C343 601 300 601 257.2 601C214.3 601 171.7 601 128.8 601C86 601 43 601 21.5 601L0 601Z" fill="#f1f1f1"></path><path d="M0 418L21.5 428C43 438 86 458 128.8 459.7C171.7 461.3 214.3 444.7 257.2 437.7C300 430.7 343 433.3 385.8 434.7C428.7 436 471.3 436 514.2 440.8C557 445.7 600 455.3 642.8 462.5C685.7 469.7 728.3 474.3 771.2 469.7C814 465 857 451 878.5 444L900 437L900 601L878.5 601C857 601 814 601 771.2 601C728.3 601 685.7 601 642.8 601C600 601 557 601 514.2 601C471.3 601 428.7 601 385.8 601C343 601 300 601 257.2 601C214.3 601 171.7 601 128.8 601C86 601 43 601 21.5 601L0 601Z" fill="#f4f4f4"></path><path d="M0 456L21.5 460.3C43 464.7 86 473.3 128.8 477C171.7 480.7 214.3 479.3 257.2 475.5C300 471.7 343 465.3 385.8 462.5C428.7 459.7 471.3 460.3 514.2 460.8C557 461.3 600 461.7 642.8 461.3C685.7 461 728.3 460 771.2 467.5C814 475 857 491 878.5 499L900 507L900 601L878.5 601C857 601 814 601 771.2 601C728.3 601 685.7 601 642.8 601C600 601 557 601 514.2 601C471.3 601 428.7 601 385.8 601C343 601 300 601 257.2 601C214.3 601 171.7 601 128.8 601C86 601 43 601 21.5 601L0 601Z" fill="#f8f8f8"></path><path d="M0 501L21.5 505.3C43 509.7 86 518.3 128.8 524.8C171.7 531.3 214.3 535.7 257.2 530.3C300 525 343 510 385.8 506.3C428.7 502.7 471.3 510.3 514.2 511.8C557 513.3 600 508.7 642.8 504C685.7 499.3 728.3 494.7 771.2 499.3C814 504 857 518 878.5 525L900 532L900 601L878.5 601C857 601 814 601 771.2 601C728.3 601 685.7 601 642.8 601C600 601 557 601 514.2 601C471.3 601 428.7 601 385.8 601C343 601 300 601 257.2 601C214.3 601 171.7 601 128.8 601C86 601 43 601 21.5 601L0 601Z" fill="#fbfbfb"></path><path d="M0 531L21.5 534C43 537 86 543 128.8 546.7C171.7 550.3 214.3 551.7 257.2 553.3C300 555 343 557 385.8 559.5C428.7 562 471.3 565 514.2 562.5C557 560 600 552 642.8 549.7C685.7 547.3 728.3 550.7 771.2 553C814 555.3 857 556.7 878.5 557.3L900 558L900 601L878.5 601C857 601 814 601 771.2 601C728.3 601 685.7 601 642.8 601C600 601 557 601 514.2 601C471.3 601 428.7 601 385.8 601C343 601 300 601 257.2 601C214.3 601 171.7 601 128.8 601C86 601 43 601 21.5 601L0 601Z" fill="#ffffff"></path></svg>