<svg id="visual" viewBox="0 0 900 600" width="900" height="600" xmlns="http://www.w3.org/2000/svg" xmlns:xlink="http://www.w3.org/1999/xlink" version="1.1"><rect x="0" y="0" width="900" height="600" fill="#ffffff"></rect><path d="M0 364L21.5 369.7C43 375.3 86 386.7 128.8 385.8C171.7 385 214.3 372 257.2 371C300 370 343 381 385.8 384.5C428.7 388 471.3 384 514.2 389.7C557 395.3 600 410.7 642.8 421.7C685.7 432.7 728.3 439.3 771.2 429.5C814 419.7 857 393.3 878.5 380.2L900 367L900 601L878.5 601C857 601 814 601 771.2 601C728.3 601 685.7 601 642.8 601C600 601 557 601 514.2 601C471.3 601 428.7 601 385.8 601C343 601 300 601 257.2 601C214.3 601 171.7 601 128.8 601C86 601 43 601 21.5 601L0 601Z" fill="#f1f1f1"></path><path d="M0 448L21.5 441.5C43 435 86 422 128.8 423.3C171.7 424.7 214.3 440.3 257.2 441.3C300 442.3 343 428.7 385.8 432C428.7 435.3 471.3 455.7 514.2 457.3C557 459 600 442 642.8 437.5C685.7 433 728.3 441 771.2 449.7C814 458.3 857 467.7 878.5 472.3L900 477L900 601L878.5 601C857 601 814 601 771.2 601C728.3 601 685.7 601 642.8 601C600 601 557 601 514.2 601C471.3 601 428.7 601 385.8 601C343 601 300 601 257.2 601C214.3 601 171.7 601 128.8 601C86 601 43 601 21.5 601L0 601Z" fill="#f4f4f4"></path><path d="M0 510L21.5 504.5C43 499 86 488 128.8 481.8C171.7 475.7 214.3 474.3 257.2 469.8C300 465.3 343 457.7 385.8 462.8C428.7 468 471.3 486 514.2 495.3C557 504.7 600 505.3 642.8 494.5C685.7 483.7 728.3 461.3 771.2 457.7C814 454 857 469 878.5 476.5L900 484L900 601L878.5 601C857 601 814 601 771.2 601C728.3 601 685.7 601 642.8 601C600 601 557 601 514.2 601C471.3 601 428.7 601 385.8 601C343 601 300 601 257.2 601C214.3 601 171.7 601 128.8 601C86 601 43 601 21.5 601L0 601Z" fill="#f8f8f8"></path><path d="M0 508L21.5 506C43 504 86 500 128.8 500.7C171.7 501.3 214.3 506.7 257.2 512.8C300 519 343 526 385.8 524C428.7 522 471.3 511 514.2 506.8C557 502.7 600 505.3 642.8 510C685.7 514.7 728.3 521.3 771.2 518.5C814 515.7 857 503.3 878.5 497.2L900 491L900 601L878.5 601C857 601 814 601 771.2 601C728.3 601 685.7 601 642.8 601C600 601 557 601 514.2 601C471.3 601 428.7 601 385.8 601C343 601 300 601 257.2 601C214.3 601 171.7 601 128.8 601C86 601 43 601 21.5 601L0 601Z" fill="#fbfbfb"></path><path d="M0 562L21.5 555.7C43 549.3 86 536.7 128.8 532.2C171.7 527.7 214.3 531.3 257.2 534C300 536.7 343 538.3 385.8 543.7C428.7 549 471.3 558 514.2 563C557 568 600 569 642.8 567.3C685.7 565.7 728.3 561.3 771.2 557.3C814 553.3 857 549.7 878.5 547.8L900 546L900 601L878.5 601C857 601 814 601 771.2 601C728.3 601 685.7 601 642.8 601C600 601 557 601 514.2 601C471.3 601 428.7 601 385.8 601C343 601 300 601 257.2 601C214.3 601 171.7 601 128.8 601C86 601 43 601 21.5 601L0 601Z" fill="#ffffff"></path></svg>