<svg id="visual" viewBox="0 0 900 600" width="900" height="600" xmlns="http://www.w3.org/2000/svg" xmlns:xlink="http://www.w3.org/1999/xlink" version="1.1"><rect x="0" y="0" width="900" height="600" fill="#ffffff"></rect><path d="M0 369L21.5 366.3C43 363.7 86 358.3 128.8 370.2C171.7 382 214.3 411 257.2 412.8C300 414.7 343 389.3 385.8 381.8C428.7 374.3 471.3 384.7 514.2 393C557 401.3 600 407.7 642.8 409.7C685.7 411.7 728.3 409.3 771.2 402C814 394.7 857 382.3 878.5 376.2L900 370L900 601L878.5 601C857 601 814 601 771.2 601C728.3 601 685.7 601 642.8 601C600 601 557 601 514.2 601C471.3 601 428.7 601 385.8 601C343 601 300 601 257.2 601C214.3 601 171.7 601 128.8 601C86 601 43 601 21.5 601L0 601Z" fill="#f1f1f1"></path><path d="M0 415L21.5 412.5C43 410 86 405 128.8 404.7C171.7 404.3 214.3 408.7 257.2 421.8C300 435 343 457 385.8 466.7C428.7 476.3 471.3 473.7 514.2 469.2C557 464.7 600 458.3 642.8 446.7C685.7 435 728.3 418 771.2 419.2C814 420.3 857 439.7 878.5 449.3L900 459L900 601L878.5 601C857 601 814 601 771.2 601C728.3 601 685.7 601 642.8 601C600 601 557 601 514.2 601C471.3 601 428.7 601 385.8 601C343 601 300 601 257.2 601C214.3 601 171.7 601 128.8 601C86 601 43 601 21.5 601L0 601Z" fill="#f4f4f4"></path><path d="M0 490L21.5 484.7C43 479.3 86 468.7 128.8 467.8C171.7 467 214.3 476 257.2 474.8C300 473.7 343 462.3 385.8 456.7C428.7 451 471.3 451 514.2 454C557 457 600 463 642.8 470C685.7 477 728.3 485 771.2 491.3C814 497.7 857 502.3 878.5 504.7L900 507L900 601L878.5 601C857 601 814 601 771.2 601C728.3 601 685.7 601 642.8 601C600 601 557 601 514.2 601C471.3 601 428.7 601 385.8 601C343 601 300 601 257.2 601C214.3 601 171.7 601 128.8 601C86 601 43 601 21.5 601L0 601Z" fill="#f8f8f8"></path><path d="M0 504L21.5 507.3C43 510.7 86 517.3 128.8 520.8C171.7 524.3 214.3 524.7 257.2 518.5C300 512.3 343 499.7 385.8 501.2C428.7 502.7 471.3 518.3 514.2 523.5C557 528.7 600 523.3 642.8 516C685.7 508.7 728.3 499.3 771.2 502.8C814 506.3 857 522.7 878.5 530.8L900 539L900 601L878.5 601C857 601 814 601 771.2 601C728.3 601 685.7 601 642.8 601C600 601 557 601 514.2 601C471.3 601 428.7 601 385.8 601C343 601 300 601 257.2 601C214.3 601 171.7 601 128.8 601C86 601 43 601 21.5 601L0 601Z" fill="#fbfbfb"></path><path d="M0 530L21.5 536.2C43 542.3 86 554.7 128.8 561.7C171.7 568.7 214.3 570.3 257.2 567.2C300 564 343 556 385.8 553.7C428.7 551.3 471.3 554.7 514.2 557.8C557 561 600 564 642.8 562.7C685.7 561.3 728.3 555.7 771.2 549.3C814 543 857 536 878.5 532.5L900 529L900 601L878.5 601C857 601 814 601 771.2 601C728.3 601 685.7 601 642.8 601C600 601 557 601 514.2 601C471.3 601 428.7 601 385.8 601C343 601 300 601 257.2 601C214.3 601 171.7 601 128.8 601C86 601 43 601 21.5 601L0 601Z" fill="#ffffff"></path></svg>