<svg id="visual" viewBox="0 0 900 600" width="900" height="600" xmlns="http://www.w3.org/2000/svg" xmlns:xlink="http://www.w3.org/1999/xlink" version="1.1"><rect x="0" y="0" width="900" height="600" fill="#ffffff"></rect><path d="M0 365L21.5 365.2C43 365.3 86 365.7 128.8 365.2C171.7 364.7 214.3 363.3 257.2 369.3C300 375.3 343 388.7 385.8 397.3C428.7 406 471.3 410 514.2 415.2C557 420.3 600 426.7 642.8 418.2C685.7 409.7 728.3 386.3 771.2 382.5C814 378.7 857 394.3 878.5 402.2L900 410L900 601L878.5 601C857 601 814 601 771.2 601C728.3 601 685.7 601 642.8 601C600 601 557 601 514.2 601C471.3 601 428.7 601 385.8 601C343 601 300 601 257.2 601C214.3 601 171.7 601 128.8 601C86 601 43 601 21.5 601L0 601Z" fill="#f1f1f1"></path><path d="M0 403L21.5 411.7C43 420.3 86 437.7 128.8 440.7C171.7 443.7 214.3 432.3 257.2 425.8C300 419.3 343 417.7 385.8 416.3C428.7 415 471.3 414 514.2 424.2C557 434.3 600 455.7 642.8 454C685.7 452.3 728.3 427.7 771.2 424.8C814 422 857 441 878.5 450.5L900 460L900 601L878.5 601C857 601 814 601 771.2 601C728.3 601 685.7 601 642.8 601C600 601 557 601 514.2 601C471.3 601 428.7 601 385.8 601C343 601 300 601 257.2 601C214.3 601 171.7 601 128.8 601C86 601 43 601 21.5 601L0 601Z" fill="#f4f4f4"></path><path d="M0 458L21.5 456.7C43 455.3 86 452.7 128.8 456.7C171.7 460.7 214.3 471.3 257.2 475.7C300 480 343 478 385.8 473.8C428.7 469.7 471.3 463.3 514.2 461.5C557 459.7 600 462.3 642.8 465.2C685.7 468 728.3 471 771.2 470.3C814 469.7 857 465.3 878.5 463.2L900 461L900 601L878.5 601C857 601 814 601 771.2 601C728.3 601 685.7 601 642.8 601C600 601 557 601 514.2 601C471.3 601 428.7 601 385.8 601C343 601 300 601 257.2 601C214.3 601 171.7 601 128.8 601C86 601 43 601 21.5 601L0 601Z" fill="#f8f8f8"></path><path d="M0 489L21.5 488C43 487 86 485 128.8 491C171.7 497 214.3 511 257.2 514.2C300 517.3 343 509.7 385.8 510.2C428.7 510.7 471.3 519.3 514.2 522.3C557 525.3 600 522.7 642.8 522.5C685.7 522.3 728.3 524.7 771.2 522.8C814 521 857 515 878.5 512L900 509L900 601L878.5 601C857 601 814 601 771.2 601C728.3 601 685.7 601 642.8 601C600 601 557 601 514.2 601C471.3 601 428.7 601 385.8 601C343 601 300 601 257.2 601C214.3 601 171.7 601 128.8 601C86 601 43 601 21.5 601L0 601Z" fill="#fbfbfb"></path><path d="M0 554L21.5 551.5C43 549 86 544 128.8 539.5C171.7 535 214.3 531 257.2 533.8C300 536.7 343 546.3 385.8 552.7C428.7 559 471.3 562 514.2 560.3C557 558.7 600 552.3 642.8 551.7C685.7 551 728.3 556 771.2 559C814 562 857 563 878.5 563.5L900 564L900 601L878.5 601C857 601 814 601 771.2 601C728.3 601 685.7 601 642.8 601C600 601 557 601 514.2 601C471.3 601 428.7 601 385.8 601C343 601 300 601 257.2 601C214.3 601 171.7 601 128.8 601C86 601 43 601 21.5 601L0 601Z" fill="#ffffff"></path></svg>