<svg id="visual" viewBox="0 0 900 600" width="900" height="600" xmlns="http://www.w3.org/2000/svg" xmlns:xlink="http://www.w3.org/1999/xlink" version="1.1"><rect x="0" y="0" width="900" height="600" fill="#ffffff"></rect><path d="M0 423L21.5 426.5C43 430 86 437 128.8 438.5C171.7 440 214.3 436 257.2 435C300 434 343 436 385.8 428.3C428.7 420.7 471.3 403.3 514.2 391.5C557 379.7 600 373.3 642.8 380.8C685.7 388.3 728.3 409.7 771.2 409.7C814 409.7 857 388.3 878.5 377.7L900 367L900 601L878.5 601C857 601 814 601 771.2 601C728.3 601 685.7 601 642.8 601C600 601 557 601 514.2 601C471.3 601 428.7 601 385.8 601C343 601 300 601 257.2 601C214.3 601 171.7 601 128.8 601C86 601 43 601 21.5 601L0 601Z" fill="#f1f1f1"></path><path d="M0 435L21.5 431.8C43 428.7 86 422.3 128.8 422.2C171.7 422 214.3 428 257.2 425.2C300 422.3 343 410.7 385.8 415.2C428.7 419.7 471.3 440.3 514.2 447.5C557 454.7 600 448.3 642.8 440.2C685.7 432 728.3 422 771.2 415.7C814 409.3 857 406.7 878.5 405.3L900 404L900 601L878.5 601C857 601 814 601 771.2 601C728.3 601 685.7 601 642.8 601C600 601 557 601 514.2 601C471.3 601 428.7 601 385.8 601C343 601 300 601 257.2 601C214.3 601 171.7 601 128.8 601C86 601 43 601 21.5 601L0 601Z" fill="#f4f4f4"></path><path d="M0 466L21.5 468.8C43 471.7 86 477.3 128.8 484.2C171.7 491 214.3 499 257.2 492.8C300 486.7 343 466.3 385.8 458.2C428.7 450 471.3 454 514.2 464.3C557 474.7 600 491.3 642.8 488.5C685.7 485.7 728.3 463.3 771.2 452.8C814 442.3 857 443.7 878.5 444.3L900 445L900 601L878.5 601C857 601 814 601 771.2 601C728.3 601 685.7 601 642.8 601C600 601 557 601 514.2 601C471.3 601 428.7 601 385.8 601C343 601 300 601 257.2 601C214.3 601 171.7 601 128.8 601C86 601 43 601 21.5 601L0 601Z" fill="#f8f8f8"></path><path d="M0 488L21.5 494.7C43 501.3 86 514.7 128.8 523C171.7 531.3 214.3 534.7 257.2 530.3C300 526 343 514 385.8 506C428.7 498 471.3 494 514.2 492.3C557 490.7 600 491.3 642.8 491.5C685.7 491.7 728.3 491.3 771.2 497.7C814 504 857 517 878.5 523.5L900 530L900 601L878.5 601C857 601 814 601 771.2 601C728.3 601 685.7 601 642.8 601C600 601 557 601 514.2 601C471.3 601 428.7 601 385.8 601C343 601 300 601 257.2 601C214.3 601 171.7 601 128.8 601C86 601 43 601 21.5 601L0 601Z" fill="#fbfbfb"></path><path d="M0 557L21.5 555.5C43 554 86 551 128.8 546.8C171.7 542.7 214.3 537.3 257.2 540.2C300 543 343 554 385.8 556.2C428.7 558.3 471.3 551.7 514.2 552.8C557 554 600 563 642.8 566.5C685.7 570 728.3 568 771.2 561.8C814 555.7 857 545.3 878.5 540.2L900 535L900 601L878.5 601C857 601 814 601 771.2 601C728.3 601 685.7 601 642.8 601C600 601 557 601 514.2 601C471.3 601 428.7 601 385.8 601C343 601 300 601 257.2 601C214.3 601 171.7 601 128.8 601C86 601 43 601 21.5 601L0 601Z" fill="#ffffff"></path></svg>