<svg id="visual" viewBox="0 0 900 600" width="900" height="600" xmlns="http://www.w3.org/2000/svg" xmlns:xlink="http://www.w3.org/1999/xlink" version="1.1"><rect x="0" y="0" width="900" height="600" fill="#ffffff"></rect><path d="M0 407L21.5 405.5C43 404 86 401 128.8 392.7C171.7 384.3 214.3 370.7 257.2 374.7C300 378.7 343 400.3 385.8 405C428.7 409.7 471.3 397.3 514.2 394.2C557 391 600 397 642.8 402.3C685.7 407.7 728.3 412.3 771.2 412C814 411.7 857 406.3 878.5 403.7L900 401L900 601L878.5 601C857 601 814 601 771.2 601C728.3 601 685.7 601 642.8 601C600 601 557 601 514.2 601C471.3 601 428.7 601 385.8 601C343 601 300 601 257.2 601C214.3 601 171.7 601 128.8 601C86 601 43 601 21.5 601L0 601Z" fill="#f1f1f1"></path><path d="M0 451L21.5 450.2C43 449.3 86 447.7 128.8 442C171.7 436.3 214.3 426.7 257.2 422.2C300 417.7 343 418.3 385.8 422C428.7 425.7 471.3 432.3 514.2 430C557 427.7 600 416.3 642.8 409C685.7 401.7 728.3 398.3 771.2 400.8C814 403.3 857 411.7 878.5 415.8L900 420L900 601L878.5 601C857 601 814 601 771.2 601C728.3 601 685.7 601 642.8 601C600 601 557 601 514.2 601C471.3 601 428.7 601 385.8 601C343 601 300 601 257.2 601C214.3 601 171.7 601 128.8 601C86 601 43 601 21.5 601L0 601Z" fill="#f4f4f4"></path><path d="M0 458L21.5 465.5C43 473 86 488 128.8 488.5C171.7 489 214.3 475 257.2 475.8C300 476.7 343 492.3 385.8 494.7C428.7 497 471.3 486 514.2 477.5C557 469 600 463 642.8 463C685.7 463 728.3 469 771.2 468.3C814 467.7 857 460.3 878.5 456.7L900 453L900 601L878.5 601C857 601 814 601 771.2 601C728.3 601 685.7 601 642.8 601C600 601 557 601 514.2 601C471.3 601 428.7 601 385.8 601C343 601 300 601 257.2 601C214.3 601 171.7 601 128.8 601C86 601 43 601 21.5 601L0 601Z" fill="#f8f8f8"></path><path d="M0 504L21.5 509.2C43 514.3 86 524.7 128.8 521.2C171.7 517.7 214.3 500.3 257.2 497.2C300 494 343 505 385.8 512.3C428.7 519.7 471.3 523.3 514.2 517.8C557 512.3 600 497.7 642.8 493.8C685.7 490 728.3 497 771.2 504.5C814 512 857 520 878.5 524L900 528L900 601L878.5 601C857 601 814 601 771.2 601C728.3 601 685.7 601 642.8 601C600 601 557 601 514.2 601C471.3 601 428.7 601 385.8 601C343 601 300 601 257.2 601C214.3 601 171.7 601 128.8 601C86 601 43 601 21.5 601L0 601Z" fill="#fbfbfb"></path><path d="M0 558L21.5 557.3C43 556.7 86 555.3 128.8 550.3C171.7 545.3 214.3 536.7 257.2 533.8C300 531 343 534 385.8 538.5C428.7 543 471.3 549 514.2 554.2C557 559.3 600 563.7 642.8 559.2C685.7 554.7 728.3 541.3 771.2 537.5C814 533.7 857 539.3 878.5 542.2L900 545L900 601L878.5 601C857 601 814 601 771.2 601C728.3 601 685.7 601 642.8 601C600 601 557 601 514.2 601C471.3 601 428.7 601 385.8 601C343 601 300 601 257.2 601C214.3 601 171.7 601 128.8 601C86 601 43 601 21.5 601L0 601Z" fill="#ffffff"></path></svg>