<svg id="visual" viewBox="0 0 900 600" width="900" height="600" xmlns="http://www.w3.org/2000/svg" xmlns:xlink="http://www.w3.org/1999/xlink" version="1.1"><rect x="0" y="0" width="900" height="600" fill="#ffffff"></rect><path d="M0 432L21.5 424.2C43 416.3 86 400.7 128.8 397.7C171.7 394.7 214.3 404.3 257.2 414.2C300 424 343 434 385.8 433.5C428.7 433 471.3 422 514.2 408.5C557 395 600 379 642.8 384.5C685.7 390 728.3 417 771.2 429.3C814 441.7 857 439.3 878.5 438.2L900 437L900 601L878.5 601C857 601 814 601 771.2 601C728.3 601 685.7 601 642.8 601C600 601 557 601 514.2 601C471.3 601 428.7 601 385.8 601C343 601 300 601 257.2 601C214.3 601 171.7 601 128.8 601C86 601 43 601 21.5 601L0 601Z" fill="#f1f1f1"></path><path d="M0 455L21.5 458.7C43 462.3 86 469.7 128.8 468C171.7 466.3 214.3 455.7 257.2 449.7C300 443.7 343 442.3 385.8 444C428.7 445.7 471.3 450.3 514.2 448.8C557 447.3 600 439.7 642.8 439.7C685.7 439.7 728.3 447.3 771.2 442.7C814 438 857 421 878.5 412.5L900 404L900 601L878.5 601C857 601 814 601 771.2 601C728.3 601 685.7 601 642.8 601C600 601 557 601 514.2 601C471.3 601 428.7 601 385.8 601C343 601 300 601 257.2 601C214.3 601 171.7 601 128.8 601C86 601 43 601 21.5 601L0 601Z" fill="#f4f4f4"></path><path d="M0 481L21.5 478.3C43 475.7 86 470.3 128.8 473C171.7 475.7 214.3 486.3 257.2 488.3C300 490.3 343 483.7 385.8 484.5C428.7 485.3 471.3 493.7 514.2 498.2C557 502.7 600 503.3 642.8 499C685.7 494.7 728.3 485.3 771.2 475.2C814 465 857 454 878.5 448.5L900 443L900 601L878.5 601C857 601 814 601 771.2 601C728.3 601 685.7 601 642.8 601C600 601 557 601 514.2 601C471.3 601 428.7 601 385.8 601C343 601 300 601 257.2 601C214.3 601 171.7 601 128.8 601C86 601 43 601 21.5 601L0 601Z" fill="#f8f8f8"></path><path d="M0 520L21.5 519.2C43 518.3 86 516.7 128.8 511.5C171.7 506.3 214.3 497.7 257.2 492.8C300 488 343 487 385.8 486.8C428.7 486.7 471.3 487.3 514.2 495.2C557 503 600 518 642.8 521.3C685.7 524.7 728.3 516.3 771.2 512.5C814 508.7 857 509.3 878.5 509.7L900 510L900 601L878.5 601C857 601 814 601 771.2 601C728.3 601 685.7 601 642.8 601C600 601 557 601 514.2 601C471.3 601 428.7 601 385.8 601C343 601 300 601 257.2 601C214.3 601 171.7 601 128.8 601C86 601 43 601 21.5 601L0 601Z" fill="#fbfbfb"></path><path d="M0 556L21.5 555.3C43 554.7 86 553.3 128.8 552C171.7 550.7 214.3 549.3 257.2 550.7C300 552 343 556 385.8 554.5C428.7 553 471.3 546 514.2 546.3C557 546.7 600 554.3 642.8 558.3C685.7 562.3 728.3 562.7 771.2 563C814 563.3 857 563.7 878.5 563.8L900 564L900 601L878.5 601C857 601 814 601 771.2 601C728.3 601 685.7 601 642.8 601C600 601 557 601 514.2 601C471.3 601 428.7 601 385.8 601C343 601 300 601 257.2 601C214.3 601 171.7 601 128.8 601C86 601 43 601 21.5 601L0 601Z" fill="#ffffff"></path></svg>