<svg id="visual" viewBox="0 0 900 600" width="900" height="600" xmlns="http://www.w3.org/2000/svg" xmlns:xlink="http://www.w3.org/1999/xlink" version="1.1"><rect x="0" y="0" width="900" height="600" fill="#ffffff"></rect><path d="M0 442L21.5 434.5C43 427 86 412 128.8 408.7C171.7 405.3 214.3 413.7 257.2 420.7C300 427.7 343 433.3 385.8 435.2C428.7 437 471.3 435 514.2 429.5C557 424 600 415 642.8 408.8C685.7 402.7 728.3 399.3 771.2 401.5C814 403.7 857 411.3 878.5 415.2L900 419L900 601L878.5 601C857 601 814 601 771.2 601C728.3 601 685.7 601 642.8 601C600 601 557 601 514.2 601C471.3 601 428.7 601 385.8 601C343 601 300 601 257.2 601C214.3 601 171.7 601 128.8 601C86 601 43 601 21.5 601L0 601Z" fill="#f1f1f1"></path><path d="M0 451L21.5 452.8C43 454.7 86 458.3 128.8 456.3C171.7 454.3 214.3 446.7 257.2 445.7C300 444.7 343 450.3 385.8 454C428.7 457.7 471.3 459.3 514.2 448.8C557 438.3 600 415.7 642.8 414.2C685.7 412.7 728.3 432.3 771.2 433.2C814 434 857 416 878.5 407L900 398L900 601L878.5 601C857 601 814 601 771.2 601C728.3 601 685.7 601 642.8 601C600 601 557 601 514.2 601C471.3 601 428.7 601 385.8 601C343 601 300 601 257.2 601C214.3 601 171.7 601 128.8 601C86 601 43 601 21.5 601L0 601Z" fill="#f4f4f4"></path><path d="M0 459L21.5 464C43 469 86 479 128.8 483.2C171.7 487.3 214.3 485.7 257.2 486.8C300 488 343 492 385.8 486.5C428.7 481 471.3 466 514.2 466.5C557 467 600 483 642.8 484.5C685.7 486 728.3 473 771.2 463C814 453 857 446 878.5 442.5L900 439L900 601L878.5 601C857 601 814 601 771.2 601C728.3 601 685.7 601 642.8 601C600 601 557 601 514.2 601C471.3 601 428.7 601 385.8 601C343 601 300 601 257.2 601C214.3 601 171.7 601 128.8 601C86 601 43 601 21.5 601L0 601Z" fill="#f8f8f8"></path><path d="M0 526L21.5 527.2C43 528.3 86 530.7 128.8 526.7C171.7 522.7 214.3 512.3 257.2 503.8C300 495.3 343 488.7 385.8 492.7C428.7 496.7 471.3 511.3 514.2 513.8C557 516.3 600 506.7 642.8 500.7C685.7 494.7 728.3 492.3 771.2 492.2C814 492 857 494 878.5 495L900 496L900 601L878.5 601C857 601 814 601 771.2 601C728.3 601 685.7 601 642.8 601C600 601 557 601 514.2 601C471.3 601 428.7 601 385.8 601C343 601 300 601 257.2 601C214.3 601 171.7 601 128.8 601C86 601 43 601 21.5 601L0 601Z" fill="#fbfbfb"></path><path d="M0 543L21.5 546.5C43 550 86 557 128.8 561.5C171.7 566 214.3 568 257.2 562.7C300 557.3 343 544.7 385.8 540.3C428.7 536 471.3 540 514.2 539C557 538 600 532 642.8 534.5C685.7 537 728.3 548 771.2 555.2C814 562.3 857 565.7 878.5 567.3L900 569L900 601L878.5 601C857 601 814 601 771.2 601C728.3 601 685.7 601 642.8 601C600 601 557 601 514.2 601C471.3 601 428.7 601 385.8 601C343 601 300 601 257.2 601C214.3 601 171.7 601 128.8 601C86 601 43 601 21.5 601L0 601Z" fill="#ffffff"></path></svg>