<svg id="visual" viewBox="0 0 900 600" width="900" height="600" xmlns="http://www.w3.org/2000/svg" xmlns:xlink="http://www.w3.org/1999/xlink" version="1.1"><rect x="0" y="0" width="900" height="600" fill="#ffffff"></rect><path d="M0 440L21.5 426.8C43 413.7 86 387.3 128.8 381.7C171.7 376 214.3 391 257.2 392.8C300 394.7 343 383.3 385.8 379C428.7 374.7 471.3 377.3 514.2 374.5C557 371.7 600 363.3 642.8 364C685.7 364.7 728.3 374.3 771.2 387.2C814 400 857 416 878.5 424L900 432L900 601L878.5 601C857 601 814 601 771.2 601C728.3 601 685.7 601 642.8 601C600 601 557 601 514.2 601C471.3 601 428.7 601 385.8 601C343 601 300 601 257.2 601C214.3 601 171.7 601 128.8 601C86 601 43 601 21.5 601L0 601Z" fill="#f1f1f1"></path><path d="M0 429L21.5 430.8C43 432.7 86 436.3 128.8 431.2C171.7 426 214.3 412 257.2 404.5C300 397 343 396 385.8 404.5C428.7 413 471.3 431 514.2 436.8C557 442.7 600 436.3 642.8 432.8C685.7 429.3 728.3 428.7 771.2 428.2C814 427.7 857 427.3 878.5 427.2L900 427L900 601L878.5 601C857 601 814 601 771.2 601C728.3 601 685.7 601 642.8 601C600 601 557 601 514.2 601C471.3 601 428.7 601 385.8 601C343 601 300 601 257.2 601C214.3 601 171.7 601 128.8 601C86 601 43 601 21.5 601L0 601Z" fill="#f4f4f4"></path><path d="M0 510L21.5 509C43 508 86 506 128.8 505.3C171.7 504.7 214.3 505.3 257.2 499.3C300 493.3 343 480.7 385.8 475.8C428.7 471 471.3 474 514.2 476C557 478 600 479 642.8 484.7C685.7 490.3 728.3 500.7 771.2 494.7C814 488.7 857 466.3 878.5 455.2L900 444L900 601L878.5 601C857 601 814 601 771.2 601C728.3 601 685.7 601 642.8 601C600 601 557 601 514.2 601C471.3 601 428.7 601 385.8 601C343 601 300 601 257.2 601C214.3 601 171.7 601 128.8 601C86 601 43 601 21.5 601L0 601Z" fill="#f8f8f8"></path><path d="M0 515L21.5 519.3C43 523.7 86 532.3 128.8 536.5C171.7 540.7 214.3 540.3 257.2 535.3C300 530.3 343 520.7 385.8 516.2C428.7 511.7 471.3 512.3 514.2 513C557 513.7 600 514.3 642.8 512.5C685.7 510.7 728.3 506.3 771.2 500.8C814 495.3 857 488.7 878.5 485.3L900 482L900 601L878.5 601C857 601 814 601 771.2 601C728.3 601 685.7 601 642.8 601C600 601 557 601 514.2 601C471.3 601 428.7 601 385.8 601C343 601 300 601 257.2 601C214.3 601 171.7 601 128.8 601C86 601 43 601 21.5 601L0 601Z" fill="#fbfbfb"></path><path d="M0 564L21.5 559C43 554 86 544 128.8 543.2C171.7 542.3 214.3 550.7 257.2 554.5C300 558.3 343 557.7 385.8 557.5C428.7 557.3 471.3 557.7 514.2 555C557 552.3 600 546.7 642.8 545.2C685.7 543.7 728.3 546.3 771.2 550.2C814 554 857 559 878.5 561.5L900 564L900 601L878.5 601C857 601 814 601 771.2 601C728.3 601 685.7 601 642.8 601C600 601 557 601 514.2 601C471.3 601 428.7 601 385.8 601C343 601 300 601 257.2 601C214.3 601 171.7 601 128.8 601C86 601 43 601 21.5 601L0 601Z" fill="#ffffff"></path></svg>