<svg id="visual" viewBox="0 0 900 600" width="900" height="600" xmlns="http://www.w3.org/2000/svg" xmlns:xlink="http://www.w3.org/1999/xlink" version="1.1"><rect x="0" y="0" width="900" height="600" fill="#ffffff"></rect><path d="M0 357L21.5 366.7C43 376.3 86 395.7 128.8 401.7C171.7 407.7 214.3 400.3 257.2 406C300 411.7 343 430.3 385.8 438.5C428.7 446.7 471.3 444.3 514.2 435.3C557 426.3 600 410.7 642.8 400.8C685.7 391 728.3 387 771.2 395.7C814 404.3 857 425.7 878.5 436.3L900 447L900 601L878.5 601C857 601 814 601 771.2 601C728.3 601 685.7 601 642.8 601C600 601 557 601 514.2 601C471.3 601 428.7 601 385.8 601C343 601 300 601 257.2 601C214.3 601 171.7 601 128.8 601C86 601 43 601 21.5 601L0 601Z" fill="#f1f1f1"></path><path d="M0 468L21.5 459.2C43 450.3 86 432.7 128.8 422.5C171.7 412.3 214.3 409.7 257.2 410.7C300 411.7 343 416.3 385.8 417.5C428.7 418.7 471.3 416.3 514.2 415.7C557 415 600 416 642.8 418C685.7 420 728.3 423 771.2 432C814 441 857 456 878.5 463.5L900 471L900 601L878.5 601C857 601 814 601 771.2 601C728.3 601 685.7 601 642.8 601C600 601 557 601 514.2 601C471.3 601 428.7 601 385.8 601C343 601 300 601 257.2 601C214.3 601 171.7 601 128.8 601C86 601 43 601 21.5 601L0 601Z" fill="#f4f4f4"></path><path d="M0 463L21.5 465.5C43 468 86 473 128.8 471C171.7 469 214.3 460 257.2 463.2C300 466.3 343 481.7 385.8 490.8C428.7 500 471.3 503 514.2 503C557 503 600 500 642.8 495.5C685.7 491 728.3 485 771.2 485.5C814 486 857 493 878.5 496.5L900 500L900 601L878.5 601C857 601 814 601 771.2 601C728.3 601 685.7 601 642.8 601C600 601 557 601 514.2 601C471.3 601 428.7 601 385.8 601C343 601 300 601 257.2 601C214.3 601 171.7 601 128.8 601C86 601 43 601 21.5 601L0 601Z" fill="#f8f8f8"></path><path d="M0 490L21.5 488.8C43 487.7 86 485.3 128.8 491.8C171.7 498.3 214.3 513.7 257.2 520C300 526.3 343 523.7 385.8 523.2C428.7 522.7 471.3 524.3 514.2 524.7C557 525 600 524 642.8 523C685.7 522 728.3 521 771.2 515.8C814 510.7 857 501.3 878.5 496.7L900 492L900 601L878.5 601C857 601 814 601 771.2 601C728.3 601 685.7 601 642.8 601C600 601 557 601 514.2 601C471.3 601 428.7 601 385.8 601C343 601 300 601 257.2 601C214.3 601 171.7 601 128.8 601C86 601 43 601 21.5 601L0 601Z" fill="#fbfbfb"></path><path d="M0 559L21.5 560.2C43 561.3 86 563.7 128.8 565.2C171.7 566.7 214.3 567.3 257.2 563.3C300 559.3 343 550.7 385.8 545.3C428.7 540 471.3 538 514.2 537.2C557 536.3 600 536.7 642.8 538.8C685.7 541 728.3 545 771.2 546.5C814 548 857 547 878.5 546.5L900 546L900 601L878.5 601C857 601 814 601 771.2 601C728.3 601 685.7 601 642.8 601C600 601 557 601 514.2 601C471.3 601 428.7 601 385.8 601C343 601 300 601 257.2 601C214.3 601 171.7 601 128.8 601C86 601 43 601 21.5 601L0 601Z" fill="#ffffff"></path></svg>