<svg id="visual" viewBox="0 0 900 600" width="900" height="600" xmlns="http://www.w3.org/2000/svg" xmlns:xlink="http://www.w3.org/1999/xlink" version="1.1"><rect x="0" y="0" width="900" height="600" fill="#ffffff"></rect><path d="M0 373L21.5 383.2C43 393.3 86 413.7 128.8 423.3C171.7 433 214.3 432 257.2 430.2C300 428.3 343 425.7 385.8 413.2C428.7 400.7 471.3 378.3 514.2 375.2C557 372 600 388 642.8 391.3C685.7 394.7 728.3 385.3 771.2 391.8C814 398.3 857 420.7 878.5 431.8L900 443L900 601L878.5 601C857 601 814 601 771.2 601C728.3 601 685.7 601 642.8 601C600 601 557 601 514.2 601C471.3 601 428.7 601 385.8 601C343 601 300 601 257.2 601C214.3 601 171.7 601 128.8 601C86 601 43 601 21.5 601L0 601Z" fill="#f1f1f1"></path><path d="M0 470L21.5 465.8C43 461.7 86 453.3 128.8 448C171.7 442.7 214.3 440.3 257.2 438C300 435.7 343 433.3 385.8 427.2C428.7 421 471.3 411 514.2 417.2C557 423.3 600 445.7 642.8 455.3C685.7 465 728.3 462 771.2 450.7C814 439.3 857 419.7 878.5 409.8L900 400L900 601L878.5 601C857 601 814 601 771.2 601C728.3 601 685.7 601 642.8 601C600 601 557 601 514.2 601C471.3 601 428.7 601 385.8 601C343 601 300 601 257.2 601C214.3 601 171.7 601 128.8 601C86 601 43 601 21.5 601L0 601Z" fill="#f4f4f4"></path><path d="M0 467L21.5 470.7C43 474.3 86 481.7 128.8 487.5C171.7 493.3 214.3 497.7 257.2 493.7C300 489.7 343 477.3 385.8 468.5C428.7 459.7 471.3 454.3 514.2 459.8C557 465.3 600 481.7 642.8 486.7C685.7 491.7 728.3 485.3 771.2 484.2C814 483 857 487 878.5 489L900 491L900 601L878.5 601C857 601 814 601 771.2 601C728.3 601 685.7 601 642.8 601C600 601 557 601 514.2 601C471.3 601 428.7 601 385.8 601C343 601 300 601 257.2 601C214.3 601 171.7 601 128.8 601C86 601 43 601 21.5 601L0 601Z" fill="#f8f8f8"></path><path d="M0 504L21.5 507.8C43 511.7 86 519.3 128.8 522.3C171.7 525.3 214.3 523.7 257.2 515.8C300 508 343 494 385.8 497C428.7 500 471.3 520 514.2 528.7C557 537.3 600 534.7 642.8 535C685.7 535.3 728.3 538.7 771.2 534.2C814 529.7 857 517.3 878.5 511.2L900 505L900 601L878.5 601C857 601 814 601 771.2 601C728.3 601 685.7 601 642.8 601C600 601 557 601 514.2 601C471.3 601 428.7 601 385.8 601C343 601 300 601 257.2 601C214.3 601 171.7 601 128.8 601C86 601 43 601 21.5 601L0 601Z" fill="#fbfbfb"></path><path d="M0 568L21.5 566.7C43 565.3 86 562.7 128.8 559C171.7 555.3 214.3 550.7 257.2 545.5C300 540.3 343 534.7 385.8 535.3C428.7 536 471.3 543 514.2 544.8C557 546.7 600 543.3 642.8 541.3C685.7 539.3 728.3 538.7 771.2 538.5C814 538.3 857 538.7 878.5 538.8L900 539L900 601L878.5 601C857 601 814 601 771.2 601C728.3 601 685.7 601 642.8 601C600 601 557 601 514.2 601C471.3 601 428.7 601 385.8 601C343 601 300 601 257.2 601C214.3 601 171.7 601 128.8 601C86 601 43 601 21.5 601L0 601Z" fill="#ffffff"></path></svg>