<svg id="visual" viewBox="0 0 900 600" width="900" height="600" xmlns="http://www.w3.org/2000/svg" xmlns:xlink="http://www.w3.org/1999/xlink" version="1.1"><rect x="0" y="0" width="900" height="600" fill="#ffffff"></rect><path d="M0 409L21.5 413.3C43 417.7 86 426.3 128.8 427.3C171.7 428.3 214.3 421.7 257.2 422.7C300 423.7 343 432.3 385.8 422.7C428.7 413 471.3 385 514.2 385.8C557 386.7 600 416.3 642.8 427.2C685.7 438 728.3 430 771.2 422.2C814 414.3 857 406.7 878.5 402.8L900 399L900 601L878.5 601C857 601 814 601 771.2 601C728.3 601 685.7 601 642.8 601C600 601 557 601 514.2 601C471.3 601 428.7 601 385.8 601C343 601 300 601 257.2 601C214.3 601 171.7 601 128.8 601C86 601 43 601 21.5 601L0 601Z" fill="#f1f1f1"></path><path d="M0 442L21.5 440.3C43 438.7 86 435.3 128.8 441.5C171.7 447.7 214.3 463.3 257.2 467C300 470.7 343 462.3 385.8 455C428.7 447.7 471.3 441.3 514.2 433.5C557 425.7 600 416.3 642.8 422.7C685.7 429 728.3 451 771.2 460C814 469 857 465 878.5 463L900 461L900 601L878.5 601C857 601 814 601 771.2 601C728.3 601 685.7 601 642.8 601C600 601 557 601 514.2 601C471.3 601 428.7 601 385.8 601C343 601 300 601 257.2 601C214.3 601 171.7 601 128.8 601C86 601 43 601 21.5 601L0 601Z" fill="#f4f4f4"></path><path d="M0 439L21.5 445.2C43 451.3 86 463.7 128.8 468.7C171.7 473.7 214.3 471.3 257.2 467.5C300 463.7 343 458.3 385.8 460.5C428.7 462.7 471.3 472.3 514.2 478.8C557 485.3 600 488.7 642.8 489.7C685.7 490.7 728.3 489.3 771.2 482.5C814 475.7 857 463.3 878.5 457.2L900 451L900 601L878.5 601C857 601 814 601 771.2 601C728.3 601 685.7 601 642.8 601C600 601 557 601 514.2 601C471.3 601 428.7 601 385.8 601C343 601 300 601 257.2 601C214.3 601 171.7 601 128.8 601C86 601 43 601 21.5 601L0 601Z" fill="#f8f8f8"></path><path d="M0 538L21.5 532.5C43 527 86 516 128.8 515.5C171.7 515 214.3 525 257.2 526.5C300 528 343 521 385.8 519.2C428.7 517.3 471.3 520.7 514.2 520.8C557 521 600 518 642.8 518.8C685.7 519.7 728.3 524.3 771.2 518.7C814 513 857 497 878.5 489L900 481L900 601L878.5 601C857 601 814 601 771.2 601C728.3 601 685.7 601 642.8 601C600 601 557 601 514.2 601C471.3 601 428.7 601 385.8 601C343 601 300 601 257.2 601C214.3 601 171.7 601 128.8 601C86 601 43 601 21.5 601L0 601Z" fill="#fbfbfb"></path><path d="M0 527L21.5 526.8C43 526.7 86 526.3 128.8 528.8C171.7 531.3 214.3 536.7 257.2 539.7C300 542.7 343 543.3 385.8 543.2C428.7 543 471.3 542 514.2 540.7C557 539.3 600 537.7 642.8 536.5C685.7 535.3 728.3 534.7 771.2 532.8C814 531 857 528 878.5 526.5L900 525L900 601L878.5 601C857 601 814 601 771.2 601C728.3 601 685.7 601 642.8 601C600 601 557 601 514.2 601C471.3 601 428.7 601 385.8 601C343 601 300 601 257.2 601C214.3 601 171.7 601 128.8 601C86 601 43 601 21.5 601L0 601Z" fill="#ffffff"></path></svg>