<svg id="visual" viewBox="0 0 900 600" width="900" height="600" xmlns="http://www.w3.org/2000/svg" xmlns:xlink="http://www.w3.org/1999/xlink" version="1.1"><rect x="0" y="0" width="900" height="600" fill="#ffffff"></rect><path d="M0 440L21.5 438.7C43 437.3 86 434.7 128.8 432.2C171.7 429.7 214.3 427.3 257.2 419C300 410.7 343 396.3 385.8 398C428.7 399.7 471.3 417.3 514.2 423.8C557 430.3 600 425.7 642.8 414.7C685.7 403.7 728.3 386.3 771.2 385.5C814 384.7 857 400.3 878.5 408.2L900 416L900 601L878.5 601C857 601 814 601 771.2 601C728.3 601 685.7 601 642.8 601C600 601 557 601 514.2 601C471.3 601 428.7 601 385.8 601C343 601 300 601 257.2 601C214.3 601 171.7 601 128.8 601C86 601 43 601 21.5 601L0 601Z" fill="#f1f1f1"></path><path d="M0 439L21.5 435.3C43 431.7 86 424.3 128.8 424.7C171.7 425 214.3 433 257.2 436.8C300 440.7 343 440.3 385.8 436.5C428.7 432.7 471.3 425.3 514.2 420.2C557 415 600 412 642.8 418.5C685.7 425 728.3 441 771.2 442C814 443 857 429 878.5 422L900 415L900 601L878.5 601C857 601 814 601 771.2 601C728.3 601 685.7 601 642.8 601C600 601 557 601 514.2 601C471.3 601 428.7 601 385.8 601C343 601 300 601 257.2 601C214.3 601 171.7 601 128.8 601C86 601 43 601 21.5 601L0 601Z" fill="#f4f4f4"></path><path d="M0 449L21.5 457.2C43 465.3 86 481.7 128.8 485.8C171.7 490 214.3 482 257.2 473.3C300 464.7 343 455.3 385.8 461C428.7 466.7 471.3 487.3 514.2 488.8C557 490.3 600 472.7 642.8 466.5C685.7 460.3 728.3 465.7 771.2 467.7C814 469.7 857 468.3 878.5 467.7L900 467L900 601L878.5 601C857 601 814 601 771.2 601C728.3 601 685.7 601 642.8 601C600 601 557 601 514.2 601C471.3 601 428.7 601 385.8 601C343 601 300 601 257.2 601C214.3 601 171.7 601 128.8 601C86 601 43 601 21.5 601L0 601Z" fill="#f8f8f8"></path><path d="M0 510L21.5 511C43 512 86 514 128.8 516.5C171.7 519 214.3 522 257.2 520C300 518 343 511 385.8 512.2C428.7 513.3 471.3 522.7 514.2 524C557 525.3 600 518.7 642.8 516.2C685.7 513.7 728.3 515.3 771.2 519.3C814 523.3 857 529.7 878.5 532.8L900 536L900 601L878.5 601C857 601 814 601 771.2 601C728.3 601 685.7 601 642.8 601C600 601 557 601 514.2 601C471.3 601 428.7 601 385.8 601C343 601 300 601 257.2 601C214.3 601 171.7 601 128.8 601C86 601 43 601 21.5 601L0 601Z" fill="#fbfbfb"></path><path d="M0 527L21.5 534C43 541 86 555 128.8 560C171.7 565 214.3 561 257.2 559.7C300 558.3 343 559.7 385.8 556.3C428.7 553 471.3 545 514.2 541.2C557 537.3 600 537.7 642.8 542.8C685.7 548 728.3 558 771.2 558C814 558 857 548 878.5 543L900 538L900 601L878.5 601C857 601 814 601 771.2 601C728.3 601 685.7 601 642.8 601C600 601 557 601 514.2 601C471.3 601 428.7 601 385.8 601C343 601 300 601 257.2 601C214.3 601 171.7 601 128.8 601C86 601 43 601 21.5 601L0 601Z" fill="#ffffff"></path></svg>