<svg id="visual" viewBox="0 0 900 600" width="900" height="600" xmlns="http://www.w3.org/2000/svg" xmlns:xlink="http://www.w3.org/1999/xlink" version="1.1"><rect x="0" y="0" width="900" height="600" fill="#ffffff"></rect><path d="M0 415L21.5 406.3C43 397.7 86 380.3 128.8 375.8C171.7 371.3 214.3 379.7 257.2 379.8C300 380 343 372 385.8 375C428.7 378 471.3 392 514.2 395.8C557 399.7 600 393.3 642.8 394.5C685.7 395.7 728.3 404.3 771.2 408.5C814 412.7 857 412.3 878.5 412.2L900 412L900 601L878.5 601C857 601 814 601 771.2 601C728.3 601 685.7 601 642.8 601C600 601 557 601 514.2 601C471.3 601 428.7 601 385.8 601C343 601 300 601 257.2 601C214.3 601 171.7 601 128.8 601C86 601 43 601 21.5 601L0 601Z" fill="#f1f1f1"></path><path d="M0 440L21.5 436.2C43 432.3 86 424.7 128.8 425.5C171.7 426.3 214.3 435.7 257.2 443.3C300 451 343 457 385.8 460.7C428.7 464.3 471.3 465.7 514.2 462C557 458.3 600 449.7 642.8 438.3C685.7 427 728.3 413 771.2 415.5C814 418 857 437 878.5 446.5L900 456L900 601L878.5 601C857 601 814 601 771.2 601C728.3 601 685.7 601 642.8 601C600 601 557 601 514.2 601C471.3 601 428.7 601 385.8 601C343 601 300 601 257.2 601C214.3 601 171.7 601 128.8 601C86 601 43 601 21.5 601L0 601Z" fill="#f4f4f4"></path><path d="M0 497L21.5 494.7C43 492.3 86 487.7 128.8 478.3C171.7 469 214.3 455 257.2 451.7C300 448.3 343 455.7 385.8 460.7C428.7 465.7 471.3 468.3 514.2 471.7C557 475 600 479 642.8 485.7C685.7 492.3 728.3 501.7 771.2 504C814 506.3 857 501.7 878.5 499.3L900 497L900 601L878.5 601C857 601 814 601 771.2 601C728.3 601 685.7 601 642.8 601C600 601 557 601 514.2 601C471.3 601 428.7 601 385.8 601C343 601 300 601 257.2 601C214.3 601 171.7 601 128.8 601C86 601 43 601 21.5 601L0 601Z" fill="#f8f8f8"></path><path d="M0 499L21.5 497.7C43 496.3 86 493.7 128.8 494.2C171.7 494.7 214.3 498.3 257.2 499.8C300 501.3 343 500.7 385.8 504.7C428.7 508.7 471.3 517.3 514.2 524.2C557 531 600 536 642.8 533C685.7 530 728.3 519 771.2 509.5C814 500 857 492 878.5 488L900 484L900 601L878.5 601C857 601 814 601 771.2 601C728.3 601 685.7 601 642.8 601C600 601 557 601 514.2 601C471.3 601 428.7 601 385.8 601C343 601 300 601 257.2 601C214.3 601 171.7 601 128.8 601C86 601 43 601 21.5 601L0 601Z" fill="#fbfbfb"></path><path d="M0 558L21.5 552.8C43 547.7 86 537.3 128.8 538.7C171.7 540 214.3 553 257.2 553.2C300 553.3 343 540.7 385.8 536.3C428.7 532 471.3 536 514.2 541.3C557 546.7 600 553.3 642.8 558.2C685.7 563 728.3 566 771.2 567.2C814 568.3 857 567.7 878.5 567.3L900 567L900 601L878.5 601C857 601 814 601 771.2 601C728.3 601 685.7 601 642.8 601C600 601 557 601 514.2 601C471.3 601 428.7 601 385.8 601C343 601 300 601 257.2 601C214.3 601 171.7 601 128.8 601C86 601 43 601 21.5 601L0 601Z" fill="#ffffff"></path></svg>